<svg height="32px" viewBox="0 -11 512.00031 512" width="32px" xmlns="http://www.w3.org/2000/svg"><path d="m417.390625 482.507812c0-4.140624-3.355469-7.5-7.5-7.5h-394.539063c2.101563-22.757812 12.992188-44.8125 17.851563-53.683593 4.484375-8.191407-4.5625-17.597657-12.929687-13.410157l-4.878907 2.4375c2.679688-31.917968 18.195313-61.894531 25.1875-73.988281 4.523438-7.828125-3.8125-17.597656-12.394531-13.8125l-4.546875 2.003907c5.015625-32.304688 23.359375-60.582032 31.53125-71.871094 5.746094-7.941406-3.078125-18.667969-11.980469-14.589844l-4.050781 1.855469c5.914063-35.929688 30.785156-76.3125 38.789063-88.589844 4.996093-7.664063-2.851563-17.601563-11.460938-14.523437l-8.960938 3.199218c4.828126-18.125 12.640626-35.300781 23.285157-51.171875 2.304687-3.441406 1.386719-8.097656-2.054688-10.40625-3.4375-2.308593-8.097656-1.386719-10.40625 2.050781-13.515625 20.15625-22.832031 42.261719-27.691406 65.707032-1.519531 7.328125 5.789063 13.710937 12.84375 11.1875l3.890625-1.390625c-13.242188 22.300781-31.972656 59.082031-34.269531 91.914062-.40625 5.808594 4.519531 10.738281 10.316406 10.410157-11.125 18.261718-23.609375 44.722656-25.753906 73.976562-.496094 6.800781 6.257812 12.132812 12.757812 10.007812-8.96875 18.234376-20.257812 47.027344-20.425781 76.644532-.0351562 6.5 6.71875 11.542968 13.070312 9.242187-6.179687 13.886719-12.507812 32.582031-13.0351558 51.746094-.1523442 5.429687 4.3281248 10.054687 9.7578128 10.054687h400.097656c4.144531 0 7.5-3.359374 7.5-7.5zm0 0"/><path d="m507.390625 427.308594c2.90625-1.808594 4.628906-4.929688 4.609375-8.347656-.167969-29.613282-11.457031-58.40625-20.421875-76.644532 2.921875.957032 6.085937.488282 8.640625-1.3125 2.828125-1.992187 4.367188-5.246094 4.113281-8.695312-2.140625-29.25-14.625-55.714844-25.75-73.976563 2.144531.121094 4.320313-.457031 6.132813-1.714843 2.859375-1.976563 4.421875-5.226563 4.183594-8.695313-2.296876-32.835937-21.027344-69.613281-34.269532-91.910156 0 0 3.878906 1.382812 3.890625 1.386719 7.058594 2.523437 14.359375-3.863282 12.84375-11.1875-10.792969-52.070313-45.066406-98.882813-91.6875-125.222657-37.953125-21.441406-79.613281-26.75-114.304687-14.558593-6.042969 2.121093-12.695313 2.121093-18.738282 0-50.40625-17.714844-114.1875 2.183593-158.714843 49.507812-2.839844 3.015625-2.695313 7.761719.320312 10.601562 3.015625 2.839844 7.761719 2.691407 10.601563-.324218 40.53125-43.070313 97.925781-61.410156 142.820312-45.632813 9.246094 3.25 19.433594 3.25 28.683594 0 30.605469-10.753906 67.769531-5.847656 101.953125 13.46875 40.136719 22.671875 70.328125 61.820313 82.183594 105.980469 0 0-8.921875-3.1875-8.945313-3.195312-8.605468-3.070313-16.464844 6.851562-11.464844 14.519531 8.003907 12.277343 32.875 52.664062 38.789063 88.59375 0 0-4.039063-1.851563-4.050781-1.855469-8.933594-4.09375-17.71875 6.65625-11.980469 14.585938 8.171875 11.292968 26.515625 39.570312 31.527344 71.875 0 0-4.527344-2-4.542969-2.003907-8.433594-3.71875-17.011719 5.824219-12.390625 13.8125 6.992187 12.09375 22.503906 42.066407 25.183594 73.988281 0 0-4.855469-2.429687-4.875-2.4375-8.363281-4.183593-17.433594 5.195313-12.929688 13.410157 4.855469 8.871093 15.75 30.925781 17.847657 53.6875h-56.753907c-4.144531 0-7.5 3.355469-7.5 7.5 0 4.140625 3.355469 7.5 7.5 7.5h62.316407c5.4375 0 9.90625-4.625 9.757812-10.058594-.53125-19.164063-6.855469-37.859375-13.039062-51.742187 2.796874 1.011718 5.886718.699218 8.460937-.902344zm0 0"/><path d="m377.980469 144.785156c0-4.144531-3.359375-7.5-7.5-7.5h-228.960938c-4.140625 0-7.5 3.355469-7.5 7.5 0 4.140625 3.359375 7.5 7.5 7.5h27.480469v11.328125c0 4.140625 3.359375 7.5 7.5 7.5 4.144531 0 7.5-3.359375 7.5-7.5v-11.328125h144v11.328125c0 4.140625 3.359375 7.5 7.5 7.5 4.144531 0 7.5-3.359375 7.5-7.5v-11.328125h27.480469c4.140625 0 7.5-3.359375 7.5-7.5zm0 0"/><path d="m180.699219 182.925781c0-4.144531-3.359375-7.5-7.5-7.5h-15.921875c-4.140625 0-7.5 3.355469-7.5 7.5 0 4.140625 3.359375 7.5 7.5 7.5h15.921875c4.140625 0 7.5-3.359375 7.5-7.5zm0 0"/><path d="m362.222656 182.925781c0-4.144531-3.359375-7.5-7.5-7.5h-15.917968c-4.144532 0-7.5 3.355469-7.5 7.5 0 4.140625 3.355468 7.5 7.5 7.5h15.917968c4.140625 0 7.5-3.359375 7.5-7.5zm0 0"/><path d="m185.777344 330.585938c3.15625 0 6.273437-.585938 9.261718-1.742188 29.847657-11.539062 50.628907-28.085938 60.960938-48.046875 10.332031 19.960937 31.113281 36.507813 60.960938 48.046875 2.988281 1.15625 6.101562 1.742188 9.261718 1.742188 13.9375 0 25.53125-11.644532 25.53125-25.550782v-45.164062c0-39.539063-24.488281-75.796875-60.957031-90.242188-10.855469-4.308594-22.320313-6.539062-34.078125-6.625h-.691406c-12.015625 0-23.730469 2.191406-34.820313 6.515625-17.761719 6.929688-32.929687 18.894531-43.859375 34.601563-11.1875 16.082031-17.101562 34.976562-17.101562 54.640625v46.277343c0 14.085938 11.453125 25.546876 25.53125 25.546876zm70.832031-152.582032c7.546875.054688 14.945313 1.160156 22.078125 3.285156-.015625.035157-.03125.070313-.046875.105469-1.253906 2.613281-2.984375 4.984375-5.03125 7.03125-.007813.003907-.015625.011719-.023437.019531-4.648438 4.546876-11.082032 7.179688-17.585938 7.179688-6.789062 0-13.574219-2.882812-18.234375-7.832031-1.824219-1.941407-3.34375-4.148438-4.480469-6.554688 7.34375-2.148437 14.964844-3.234375 22.746094-3.234375zm-81.363281 80.757813c0-16.585938 4.984375-32.519531 14.417968-46.074219 7.675782-11.03125 17.828126-19.875 29.652344-25.902344 3.527344 7.957032 9.71875 14.667969 17.335938 18.863282 5.886718 3.238281 12.628906 4.976562 19.347656 4.976562 6.714844 0 13.386719-1.714844 19.273438-4.945312 7.585937-4.160157 13.792968-10.855469 17.339843-18.753907 26.695313 13.867188 44.140625 42.230469 44.140625 72.945313v45.164062c0 7.296875-7.578125 12.453125-14.382812 9.820313-26.859375-10.382813-58.871094-30.074219-58.871094-64.921875 0-4.140625-3.359375-7.5-7.5-7.5-4.144531 0-7.5 3.359375-7.5 7.5 0 34.847656-32.015625 54.539062-58.871094 64.921875-6.804687 2.632812-14.382812-2.5-14.382812-9.820313zm0 0"/></svg>
